<?xml version="1.0" encoding="utf-8"?>
<!-- Generator: Adobe Illustrator 16.0.0, SVG Export Plug-In . SVG Version: 6.00 Build 0)  -->
<!DOCTYPE svg PUBLIC "-//W3C//DTD SVG 1.1//EN" "http://www.w3.org/Graphics/SVG/1.1/DTD/svg11.dtd">
<svg version="1.1" id="Layer_2" xmlns="http://www.w3.org/2000/svg" xmlns:xlink="http://www.w3.org/1999/xlink" x="0px" y="0px"
	 width="234.611px" height="234.832px" viewBox="0 0 234.611 234.832" enable-background="new 0 0 234.611 234.832"
	 xml:space="preserve">
<path fill="#FFFFFF" d="M179.859,0H55.276C24.831-0.084,0.083,24.355,0,54.8l-0.043,15.545h80.199
	c10.254-8.072,23.19-12.989,37.253-12.951c14.062,0.04,26.973,4.821,37.181,12.951h80.2l0.042-14.896
	C234.916,25.004,210.303,0.084,179.859,0z M202.657,46.782c-0.016,5.798-4.729,10.486-10.528,10.47l-13.299-0.037
	c-5.798-0.016-10.486-4.729-10.469-10.528l0.036-13.299c0.016-5.798,4.729-10.487,10.527-10.47l13.3,0.037
	c5.799,0.016,10.486,4.729,10.47,10.527L202.657,46.782z"/>
<path fill="#FFFFFF" d="M177.264,117.581c-0.091,33.147-27.037,59.946-60.187,59.854c-33.148-0.093-59.946-27.037-59.855-60.187
	c0.03-10.755,2.9-20.69,7.88-29.406H-0.091l-0.253,91.54c-0.084,30.445,24.527,55.364,54.972,55.448H179.21
	c30.445,0.084,55.193-24.356,55.277-54.8l0.254-92.188h-65.194C174.479,96.588,177.293,106.826,177.264,117.581z"/>
</svg>
