<?xml version="1.0" encoding="utf-8"?>
<!-- Generator: Adobe Illustrator 17.0.0, SVG Export Plug-In . SVG Version: 6.00 Build 0)  -->
<!DOCTYPE svg PUBLIC "-//W3C//DTD SVG 1.1//EN" "http://www.w3.org/Graphics/SVG/1.1/DTD/svg11.dtd">
<svg version="1.1" id="Layer_2" xmlns="http://www.w3.org/2000/svg" xmlns:xlink="http://www.w3.org/1999/xlink" x="0px" y="0px"
	 width="231.097px" height="225.895px" viewBox="0 0 231.097 225.895" enable-background="new 0 0 231.097 225.895"
	 xml:space="preserve">
<path fill="#FFFFFF" d="M188.69,178.267c-11.85,5.326-6.525-4.061-6.525-4.061l-0.025,0.015c6.133-11.809,9.611-25.268,9.611-39.56
	c0-46.261-36.398-83.853-81.598-84.662c1.82-5.947,0.336-10.6-3.15-7.243c-9.198,8.859-14.641,4.053-20.948-1.902
	c-4.853-4.585-9.553-0.374-9.69,4.398c-0.132,4.582,1.284,9.036,3.735,12.532c-13.143,6.8-25.09,17.035-34.009,26.547
	c-3.444,0.442-29.526,3.965-35.864,9.837c0,0-2.796,3.595,1.597,8.188c0,0,8.737,9.247,16.058,12.041
	c-0.103,0.296-0.193,0.599-0.293,0.897l-8.107-1.078c0,0-9.618-0.196-5.009,6.976c1.823,2.836,5.733,5.344,9.792,7.341
	c-0.777,4.649-1.189,9.424-1.189,14.3c0,46.768,39.71,76.508,85.595,76.508c53.524,0,74.037-22.98,82.818-34.485
	C195.347,179.798,194.91,175.471,188.69,178.267z"/>
<g>
	<path fill="#FFFFFF" d="M178.945,51.728c-0.081-5.049-1.19-15.014,4.659-17.377c5.792-2.34,9.015,1.223,10.715,5.741
		c3.287-0.473,6.626-0.728,9.98-0.897c-2.88-15.407-35.58-31.197-46.563-32.597c-12.07-1.539-24.891,2.631-33.158,9.887
		c-5.422,4.759-12.56,13.374-10.41,21.519l65.696,36.095c-0.31-1.419-0.559-2.806-0.652-4.106
		C178.771,63.805,179.043,57.813,178.945,51.728z"/>
	<path fill="#FFFFFF" d="M214.622,48.077c-6.998-7.542-22.004-9.529-22.705,2.333c-0.79,13.378,24.283,22.548,26.163,7.209
		C218.524,53.999,217.058,50.702,214.622,48.077z"/>
	<path fill="#FFFFFF" d="M182.346,85.685c-1.517,2.761-5.251,3.622-8.341,1.924l-71.14-39.085c-3.09-1.698-4.366-5.312-2.849-8.073
		l0,0c1.517-2.761,5.251-3.622,8.341-1.924l71.14,39.085C182.587,79.311,183.862,82.925,182.346,85.685L182.346,85.685z"/>
</g>
</svg>
