<?xml version="1.0" encoding="utf-8"?>
<!-- Generator: Adobe Illustrator 17.0.0, SVG Export Plug-In . SVG Version: 6.00 Build 0)  -->
<!DOCTYPE svg PUBLIC "-//W3C//DTD SVG 1.1//EN" "http://www.w3.org/Graphics/SVG/1.1/DTD/svg11.dtd">
<svg version="1.1" id="Layer_1" xmlns="http://www.w3.org/2000/svg" xmlns:xlink="http://www.w3.org/1999/xlink" x="0px" y="0px"
	 width="200px" height="203px" viewBox="0 0 200 203" enable-background="new 0 0 200 203" xml:space="preserve">
<path fill="#004996" d="M100.048,200.247c55.2,0,99.952-44.746,99.952-99.949c0-55.197-44.752-99.949-99.952-99.949
	C44.849,0.35,0.1,45.102,0.1,100.298C0.1,155.501,44.849,200.247,100.048,200.247"/>
<path fill="#FFFFFF" d="M61.444,91.815h17.182V75.116c0-7.363,0.186-18.719,5.535-25.752c5.634-7.448,13.37-12.51,26.671-12.51
	c21.679,0,30.806,3.091,30.806,3.091l-4.294,25.457c0,0-7.163-2.071-13.844-2.071c-6.683,0-12.668,2.395-12.668,9.075v19.41h27.402
	l-1.912,24.864h-25.49v86.378H78.626V116.68H61.444V91.815z"/>
</svg>
